<svg width="30" height="30" viewBox="0 0 30 30" fill="none" xmlns="http://www.w3.org/2000/svg">
<path d="M8 22H4.5C3.57174 22 2.6815 21.6313 2.02513 20.9749C1.36875 20.3185 1 19.4283 1 18.5V4.5C1 3.57174 1.36875 2.6815 2.02513 2.02513C2.6815 1.36875 3.57174 1 4.5 1H18.5C19.4283 1 20.3185 1.36875 20.9749 2.02513C21.6313 2.6815 22 3.57174 22 4.5V8M11.5 29H25.5C26.4283 29 27.3185 28.6313 27.9749 27.9749C28.6313 27.3185 29 26.4283 29 25.5V11.5C29 10.5717 28.6313 9.6815 27.9749 9.02513C27.3185 8.36875 26.4283 8 25.5 8H11.5C10.5717 8 9.6815 8.36875 9.02513 9.02513C8.36875 9.6815 8 10.5717 8 11.5V25.5C8 26.4283 8.36875 27.3185 9.02513 27.9749C9.6815 28.6313 10.5717 29 11.5 29Z" stroke="black" stroke-width="2" stroke-linecap="round" stroke-linejoin="round"/>
</svg>
