<svg width="82" height="82" viewBox="0 0 82 82" fill="none" xmlns="http://www.w3.org/2000/svg">
<circle cx="41" cy="41" r="41" fill="#AB93E0"/>
<path fill-rule="evenodd" clip-rule="evenodd" d="M28.2 38.85V33.75C28.2 30.3685 29.5696 27.1255 32.0076 24.7344C34.4456 22.3433 37.7522 21 41.2 21C44.6478 21 47.9544 22.3433 50.3924 24.7344C52.8304 27.1255 54.2 30.3685 54.2 33.75V38.85C55.5791 38.85 56.9018 39.3873 57.877 40.3438C58.8521 41.3002 59.4 42.5974 59.4 43.95V56.7C59.4 58.0526 58.8521 59.3498 57.877 60.3062C56.9018 61.2627 55.5791 61.8 54.2 61.8H28.2C26.8209 61.8 25.4982 61.2627 24.523 60.3062C23.5479 59.3498 23 58.0526 23 56.7V43.95C23 42.5974 23.5479 41.3002 24.523 40.3438C25.4982 39.3873 26.8209 38.85 28.2 38.85ZM49 33.75V38.85H33.4V33.75C33.4 31.7211 34.2218 29.7753 35.6846 28.3406C37.1474 26.906 39.1313 26.1 41.2 26.1C43.2687 26.1 45.2527 26.906 46.7154 28.3406C48.1782 29.7753 49 31.7211 49 33.75Z" fill="#F5F378"/>
</svg>
