<svg width="26" height="26" viewBox="0 0 26 26" fill="none" xmlns="http://www.w3.org/2000/svg">
<path d="M1 0.999891V8.49989H1.873M1.873 8.49989C2.86877 6.03708 4.65352 3.97425 6.94754 2.63468C9.24157 1.29511 11.9152 0.754511 14.5495 1.0976C17.1837 1.44069 19.6297 2.64808 21.5041 4.53056C23.3784 6.41303 24.5753 8.86419 24.907 11.4999M1.873 8.49989H8.5M25 24.9999V17.4999H24.1285M24.1285 17.4999C23.1313 19.9613 21.346 22.0225 19.0523 23.3608C16.7585 24.6992 14.0856 25.2392 11.4522 24.8962C8.81869 24.5532 6.3733 23.3467 4.4988 21.4655C2.62431 19.5843 1.42653 17.1346 1.093 14.4999M24.1285 17.4999H17.5" stroke="black" stroke-width="2" stroke-linecap="round" stroke-linejoin="round"/>
</svg>
